<svg xmlns="http://www.w3.org/2000/svg" width="157" height="21" fill="none"><path id="tradingview-logo" fill="#000" d="M127.37 2.21c0 .99-.83 1.78-1.87 1.78-1 0-1.84-.8-1.84-1.78s.85-1.77 1.84-1.77c1.04 0 1.87.8 1.87 1.77ZM127 16h-3V5h3v11ZM81.54 4.02c1.04 0 1.87-.8 1.87-1.77 0-.99-.83-1.78-1.87-1.78-1 0-1.84.8-1.84 1.78s.85 1.77 1.84 1.77ZM80 16h3V5h-3v11Zm-37 0h-3V4h-4V1h11v3h-4v12Zm7 0-3 .02V5h3v1.88c.36-1 1.34-1.75 2.53-1.75h.03c.3 0 .6 0 .94.1v2.84a4 4 0 0 0-1.31-.2c-1.38 0-2.19 1-2.19 2.7V16Zm38 0h-3V5.01L88 5v1c.57-.82 1.53-1.21 2.9-1.21 2.57 0 4.1 1.8 4.1 4.45V16h-3v-6c0-1.47-.56-2.66-1.77-2.66-1.36 0-2.23.93-2.23 2.89V16Zm29 0 6-15h-3.5l-4 10.5L111 1h-3.5l6.5 15h3Zm36.45 0h-2.93l-2.02-6.25-2 6.25h-2.93L140 5h3.14l2.05 7.04L147.36 5h2.26l2.2 7.04L153.84 5H157l-3.55 11Zm-94.53.24c1.52 0 2.57-.77 3.08-1.47V16h3V5h-3v1.23a3.78 3.78 0 0 0-3.08-1.47c-2.93 0-5.17 2.64-5.17 5.74s2.24 5.74 5.17 5.74Zm.64-2.75c-1.68 0-2.78-1.25-2.78-2.99 0-1.74 1.1-3 2.78-3 1.67 0 2.77 1.26 2.77 3s-1.1 3-2.77 3v-.01ZM75 14.77c-.5.7-1.56 1.47-3.08 1.47-2.93 0-5.17-2.64-5.17-5.74s2.24-5.74 5.17-5.74c1.52 0 2.57.77 3.08 1.47V1h3v15h-3v-1.23Zm-5.22-4.27c0 1.74 1.1 3 2.78 3 1.67 0 2.77-1.26 2.77-3s-1.1-3-2.77-3c-1.68 0-2.78 1.26-2.78 3Zm32.45 10.32c3.36 0 5.77-1.72 5.77-5.68V5h-3v1.23a3.6 3.6 0 0 0-3.06-1.47c-2.88 0-5.2 2.46-5.2 5.56 0 3.08 2.32 5.68 5.2 5.68a3.8 3.8 0 0 0 3.06-1.58v.74c0 1.76-1.04 3.02-2.82 3.02a4.84 4.84 0 0 1-3.43-1.37l-1.65 2.25c1.25 1.2 3.21 1.76 5.13 1.76Zm.35-7.68a2.75 2.75 0 0 1-2.8-2.82 2.74 2.74 0 0 1 2.8-2.81c1.52 0 2.8 1.12 2.8 2.81a2.74 2.74 0 0 1-2.8 2.82Zm37.2.58a5.95 5.95 0 0 1-5.1 2.47c-3.28 0-5.83-2.27-5.83-5.74a5.61 5.61 0 0 1 5.78-5.75c2.89 0 5.42 1.83 5.42 5.42.02.38 0 .76-.04 1.13h-8.24c.18 1.47 1.48 2.19 2.93 2.19 1.39 0 2.33-.62 2.84-1.39l2.24 1.67Zm-5.23-6.53c-1.13 0-2.38.57-2.67 1.91h5.15c-.26-1.32-1.36-1.91-2.48-1.91ZM12 1H0v6h6v9h6V1Zm12 15h-7l6-15h7l-6 15Zm-7-9a3 3 0 1 0 0-6 3 3 0 0 0 0 6Z"/></svg>